<svg width="42" height="41" viewBox="0 0 42 41" fill="none" xmlns="http://www.w3.org/2000/svg">
<path fill-rule="evenodd" clip-rule="evenodd" d="M41.1895 20.3493C41.1895 31.5879 31.9834 40.6985 20.627 40.6985C9.27066 40.6985 0.0645142 31.5879 0.0645142 20.3493C0.0645142 9.11068 9.27066 0 20.627 0C31.9834 0 41.1895 9.11068 41.1895 20.3493ZM10.7773 30.0968C10.3848 29.7083 10.3848 29.0785 10.7773 28.69L19.2055 20.3493L10.7774 12.0086C10.3848 11.6201 10.3848 10.9902 10.7774 10.6017C11.1699 10.2133 11.8064 10.2133 12.1989 10.6017L20.627 18.9424L29.0551 10.6017C29.4477 10.2133 30.0841 10.2133 30.4767 10.6017C30.8692 10.9902 30.8692 11.6201 30.4767 12.0086L22.0486 20.3493L30.4767 28.69C30.8692 29.0785 30.8692 29.7083 30.4767 30.0968C30.0841 30.4853 29.4477 30.4853 29.0551 30.0968L20.627 21.7561L12.1989 30.0968C11.8064 30.4853 11.1699 30.4853 10.7773 30.0968Z" fill="#D30000"/>
</svg>
